<svg id="Layer_1" data-name="Layer 1" xmlns="http://www.w3.org/2000/svg" viewBox="0 0 446.89 134.66"><defs><style>.cls-1{fill:#08222e;stroke:#9fecf4;stroke-miterlimit:10;stroke-width:2px;}</style></defs><title>carrotBent3</title><path class="cls-1" d="M372.14,357c2.16-2.61,4.62-5.37,8.51-5.76,6.07-.61,12.36,4.69,18.79,5.73a40.53,40.53,0,0,0,7.38.11,47.09,47.09,0,0,1,21.86,5.21,9.09,9.09,0,0,0,3.24,1.22c1.5.14,2.75-.6,4.05-1.09,5.27-1.94,12.76.75,15.68,5.64a9,9,0,0,1,8.08,1.27c5.24-1.46,14-.25,18.43,3.22a7.26,7.26,0,0,0,2.72,1.68c1.78.4,3.27-.78,4.85-1.4,5.37-2.11,11.52,2.37,17.54,3.89a35.29,35.29,0,0,0,7.45.83q10.38.39,20.64.21c8.68-.13,17.84-.46,25.4,3.37,16.68-2.46,33.55-6.17,50.13-5.88s34.29,5.12,44.47,16.61a37.41,37.41,0,0,1,8.35,17.81c3.21,15.86-4.92,35.7-26.11,42.15-15.56,4.69-32.58.68-48.83-.14-13.29-.65-27.39.75-39.64-3.79-5.23.2-10.52-.79-15.69-1.85q-19.05-3.93-37.68-9.47c-6.64-1.95-14.33-5.09-15.68-10.32-3.46,2.89-10.36,1.54-15.3-1.05s-9.23-6.2-14.56-8c-2.73-.9-5.62-1.28-8.31-2.33a32.28,32.28,0,0,1-6.25-3.54C409.23,396.23,387.48,377.4,372.14,357Z" transform="translate(-370.87 -320.35)"/><path class="cls-1" d="M657.06,400.62c6.08-6.42,18-9,21.06-16.78,1-2.43.83-5,.86-7.47A64.86,64.86,0,0,1,681.07,361a2.36,2.36,0,0,1,.83-1.49c1-.67,2.31.13,3.06.94a17.17,17.17,0,0,1,4.24,8.17,19.33,19.33,0,0,0,3-16.23c-.74-2.63-2-5.1-2.55-7.78s-.13-5.78,2-7.76q1.75,3.15,3.54,6.29a14.86,14.86,0,0,0,1.4-8.78c4,.83,7,4.62,6.61,8.55,3.25-1.7,4.23-6.19,2-8.69.09-3.57,4.63-10.57,8.07-12a16.87,16.87,0,0,1,11,0,14,14,0,0,1,5.22,2.71c3.38,3,3.9,8.12,2.36,12.54s-4.78,8.25-8.06,11.93c2.83-1,5.84-2.06,8.71-1.6,3.65.59,5.13,4.9,7,7.37,3.81-8.14,16.15-12.7,24.11-8.89-.64,1.35-1.28,2.71-1.93,4.06,2.89,1.18,6.54-.81,9.87-1.88s8.08,0,7.07,3c2.6-3.3,8-4.93,11.3-3.15s3.37,7-.24,9.69q9.2-3,18.36-6.57c-.94,2.38-1.9,4.77-2.9,7.15,3.48-3,9-2,10.81,1.14s.69,7.41-.89,11.34c-2.36,5.91-7.22,12.76-14.2,14.07-6.38,1.19-12.78-2.57-18.08,1.14.79,2.18,4.12,2.43,6.77,3s5.13,2.88,3.12,5.09q4,1.11,8,2.15c.76,3.56-5.76,6.53-10.5,7.41s-11.24,3.34-11,7a21,21,0,0,1,10.26,1.51,18.58,18.58,0,0,1-4.29,7.61c-1.47.16-2.94.32-4.4.46a5.44,5.44,0,0,0,4.24,6.08A66.69,66.69,0,0,1,767.78,429c-.09,1.72-.19,3.44-.29,5.17-5.93-1.61-13.47,2.32-20.44,3.72-13.83,2.78-24.68-4.27-33.14-11-.69,1.25-1.4,2.51-2.11,3.76C699,430.19,698.35,413.12,686,413a27.09,27.09,0,0,0-7.08,1.17q-9.28,2.4-18.67,4.37" transform="translate(-370.87 -320.35)"/><path class="cls-1" d="M679.78,391.59a7.48,7.48,0,0,1,2.85-1.27c2.71-.4,5,2.15,7.67,1.4,1.71-.48,2.6-2.06,3.55-3.36s2.74-2.63,4.28-2.09c1,1.27.42,3.23-.93,4.51a15.22,15.22,0,0,1-5.09,2.74Q686,395.83,679.88,398c-3.47,1.2-7.51,2.9-10.85,2.73C669.87,396.56,676,394,679.78,391.59Z" transform="translate(-370.87 -320.35)"/><path class="cls-1" d="M661.32,410.88a142.91,142.91,0,0,1,16.14-.74,21.31,21.31,0,0,1-16.2,5" transform="translate(-370.87 -320.35)"/><path class="cls-1" d="M674.36,405.46a65.19,65.19,0,0,1,20.77-3.63c2.47,0,5.17.19,6.74,1.61,2.58-4.34,9.94-9.89,15.93-10.29,5.08-.33,6.79,4.38,12.62,2.48,5.47-1.82,8.11-3.29,13.68-2.75q10.92,1,22.12,1.42a30.05,30.05,0,0,0,10.06-.85c3.37-1,6.7-3.41,7.54-6.25" transform="translate(-370.87 -320.35)"/><path class="cls-1" d="M720.58,392.4a37.19,37.19,0,0,1,20.12.17" transform="translate(-370.87 -320.35)"/></svg>