<svg id="Layer_1" data-name="Layer 1" xmlns="http://www.w3.org/2000/svg" viewBox="0 0 248.49 295.3"><defs><style>.cls-1{fill:#9fecf4;stroke:#08222e;stroke-miterlimit:10;stroke-width:2px;}</style></defs><title>carrot2</title><path class="cls-1" d="M770.52,517.69c-2.87,1.77-6.07,3.62-9.41,3.12-5.24-.78-8-6.72-12.64-9.27a32.89,32.89,0,0,0-5.86-2.08,28.81,28.81,0,0,1-14.68-11.06,6.42,6.42,0,0,0-1.89-2.11c-1.1-.62-2.46-.45-3.72-.51a9.85,9.85,0,0,1-9-10.45,6.38,6.38,0,0,1-5.35-4.26c-4.77-.95-10.61-5.79-11.67-10.53a5.37,5.37,0,0,0-1-2.55c-1-1.13-2.82-.91-4.33-1.18-5.18-.91-6.73-7.39-9.88-11.6a28.42,28.42,0,0,0-4.55-4.49l-13.56-11.5c-5.72-4.85-11.76-10.2-13.51-17.49-11.84-8.62-24.32-17.73-32.61-29.8s-12.24-28.18-6.34-41.58a42.11,42.11,0,0,1,12.11-15.21c12.58-10.34,31.91-14.76,45.08-5.18,9.72,7.07,13.57,19.52,20.56,29.3,5.7,8,13.79,14.57,17,23.86,2.94,2.54,5.1,5.84,7.21,9.1l15.61,24c2.78,4.28,5.63,9.71,3.16,14.17,4.1-.76,7.7,2.94,9.39,6.75s2.39,8.15,5,11.38c1.34,1.65,3.12,2.93,4.39,4.64a19.2,19.2,0,0,1,2.36,4.81C759.69,477,766.82,497.64,770.52,517.69Z" transform="translate(-523.14 -226.6)"/><path class="cls-1" d="M616,341.65c-7.82-1.14-14.25-8.91-22.06-7.69-2.45.39-4.66,1.65-6.88,2.76a64.33,64.33,0,0,1-14.38,5.18,2.31,2.31,0,0,1-1.62,0c-.94-.53-.67-2-.19-2.93a18.76,18.76,0,0,1,5.93-7,21.23,21.23,0,0,0-15.6,4.3c-2.15,1.69-4,3.79-6.23,5.32S549.72,344,547.2,343l4.61-5.54a15.89,15.89,0,0,0-8.52,2.15,8.49,8.49,0,0,1,5.84-9A5.94,5.94,0,0,0,540.5,332c-3.33,1.23-11.22-.46-13.48-3.19a14.61,14.61,0,0,1-2.86-10,13.15,13.15,0,0,1,1.34-5.56c2.09-3.94,6.82-5.88,11.28-5.89s8.75,1.57,12.92,3.13c-1.59-2.09-3.24-4.35-3.4-7-.21-3.34,3.52-6,5.46-8.34-8.32-.57-14.69-10.14-12-18l4,.54c.74-2.8-1.54-5.37-2.86-7.95s-.7-6.92,2.2-6.82c-3.3-1.37-5.18-5.62-3.67-8.87s6.3-4.46,9-2.12L541.86,238l6.61.85c-2.82-2.22-1.84-7.11,1-9.25s6.78-2.19,10.35-1.83c5.37.54,11.58,2.69,13,7.91,1.29,4.76-1.79,11,2,14.17,1.92-1.28,1.91-4,2.28-6.3s2.35-4.92,4.46-4l1.6-6.93c3.19-1.62,6.1,2.59,7.19,6s3.82,7.68,7.09,6.25a14.92,14.92,0,0,1,.62-8.39,15.26,15.26,0,0,1,7.12.78l.75,3.18a7.12,7.12,0,0,0,5.13-5.27,42.5,42.5,0,0,1,3.66,12l4.65-1.69c-.8,5,3.67,9.05,6,13.55,4.57,8.89.55,19.59-3.49,28.73l3.81-.12c2.66,9.41-12.16,17.65-8.73,26.81a15.27,15.27,0,0,0,3.19,4.6l10,11.17" transform="translate(-523.14 -226.6)"/><path class="cls-1" d="M600.2,329.09a5,5,0,0,1-2-1.59c-1.22-1.9.32-4.81-1.15-6.53-.94-1.11-2.6-1.09-4-1.26s-3.15-1-3.1-2.44a3.73,3.73,0,0,1,4.28-1.22,11,11,0,0,1,3.91,2.73l7.68,7.26c2.17,2,5,4.23,6,6.78C607.88,334.24,603.53,330.86,600.2,329.09Z" transform="translate(-523.14 -226.6)"/><path class="cls-1" d="M623.23,333.35A68.35,68.35,0,0,1,617.16,322a14.27,14.27,0,0,1,9.75,9.18" transform="translate(-523.14 -226.6)"/><path class="cls-1" d="M614.1,326.57a35.83,35.83,0,0,1-9.55-13.81c-.72-1.86-1.27-4-.43-5.81-4.53,0-11.42-3.39-13.15-7.94-1.47-3.85,2.4-7-.5-10.84-2.73-3.58-4.54-5.14-5-9.73l-1.82-18c-.27-2.63-.55-5.34-1.79-7.69s-3.65-4.26-6.3-4.09" transform="translate(-523.14 -226.6)"/><path class="cls-1" d="M589.65,297.14a23.63,23.63,0,0,1-3.88-15.9" transform="translate(-523.14 -226.6)"/></svg>