<svg id="Layer_1" data-name="Layer 1" xmlns="http://www.w3.org/2000/svg" viewBox="0 0 511.02 190.78"><defs><style>.cls-1{opacity:0.91;}.cls-2{fill:#f4a545;stroke:#72c1d6;stroke-miterlimit:10;stroke-width:6px;}</style></defs><title>carrot3</title><g class="cls-1"><path class="cls-2" d="M324.21,303.83c1.47-4.53,3.22-9.43,7.27-11.95,6.36-3.94,14.73,0,22.06-1.55,2.87-.59,5.5-2,8.21-3.1a40.57,40.57,0,0,1,25.9-1.5,9,9,0,0,0,4,.54c1.76-.33,3-1.75,4.47-2.84,5.74-4.41,15.08-2.91,19.16,3.08a9,9,0,0,1,9.65-.3c6-3.33,16.7-3.46,22.17.68a7.58,7.58,0,0,0,3.35,1.88c2.14.28,3.87-1.6,5.74-2.69,6.39-3.74,14,1.82,21.21,3.47a39.78,39.78,0,0,0,9,.68h25.1c10.58,0,22,.24,30.49,6.5,20.61-1.53,42.35-3.11,62.3,2.31s38.88,19.15,44.75,39c2.63,8.85,2.51,18.34.86,27.42-4.11,22.61-20.88,45-43.79,46.71-16.91,1.26-32.42-8.62-48.86-12.77-13.42-3.38-28.14-3.1-40-10.21-5.48,0-10.81-1.63-16.06-3.2l-38.68-11.58c-6.89-2.06-14.91-5.3-16.33-12.35-3.72,4.55-11,3.86-16.27,1.29s-10-6.58-15.78-7.66c-3-.55-6-.3-9-1a27.81,27.81,0,0,1-6.92-3C373,337.72,346.49,322,324.21,303.83Z" transform="translate(-320.72 -277.88)"/><path class="cls-2" d="M651.16,352.26c9.46-5.92,23.46-3.42,30.75-11.86,2.29-2.65,3.52-6,4.89-9.25a91.19,91.19,0,0,1,10.75-18.7,3.18,3.18,0,0,1,1.77-1.43c1.51-.29,2.52,1.49,2.89,3a26.6,26.6,0,0,1,0,12.91,30,30,0,0,0,12.86-18.86c.77-3.78.81-7.7,1.85-11.42s3.41-7.39,7.09-8.54l.09,10.16a22.35,22.35,0,0,0,7.21-10.08,12,12,0,0,1,1.93,15,8.37,8.37,0,0,0,8-9.41c2.46-4.36,12.49-9.75,17.42-8.87s9.14,4.18,12.2,8.14a18.33,18.33,0,0,1,3.62,7.21c1.35,6.14-2,12.55-6.76,16.63s-10.84,6.3-16.76,8.43c3.61.79,7.45,1.71,10,4.38,3.28,3.41,1.68,9.66,1.74,14,9.47-7,25.05-2.5,29.37,8.44l-4.83,3.09c1.76,3.69,6.56,4.38,10.34,5.94s7.06,6.83,3.86,9.36c4.8-1.54,10.69,1.33,12,6.18s-2.71,10.57-7.75,10.5l19.8,9-7.89,5.12c5.06-.17,8.47,6,7.31,10.91s-5.29,8.55-9.46,11.42c-6.28,4.32-14.93,7.68-21.2,3.35-5.73-4-8.12-13.48-15.08-13.44-.89,3.13,1.61,6.07,3.29,8.86s2,7.44-1.16,8.34l4.6,8.92c-2,4.65-8.94,2.78-13.22.1s-11.12-4.78-13.33-.25a21.15,21.15,0,0,1,7,9.58,21.21,21.21,0,0,1-8.38,5.66L754.27,452a10,10,0,0,0-.7,10.35,59.92,59.92,0,0,1-14.87-9.53l-3.46,6.07c-3.69-6.1-12.21-6.39-18.8-9.12-13-5.39-18.47-20.58-22.47-34.1l-4,3.6c-11.46-7.69-3-30.09-15.08-36.81a21.6,21.6,0,0,0-7.63-2.05l-20.91-2.92" transform="translate(-320.72 -277.88)"/><path class="cls-2" d="M679.61,351.36a7.27,7.27,0,0,1,3.64-.15c3,.94,4,5.48,7.19,6,2,.33,3.8-1.2,5.5-2.33s4.29-1.8,5.55-.2c.35,2.23-1.4,4.36-3.49,5.22a15.36,15.36,0,0,1-6.69.63l-14.9-.8c-4.2-.23-9.24,0-12.64-1.83C666.65,352.83,674.39,352.5,679.61,351.36Z" transform="translate(-320.72 -277.88)"/><path class="cls-2" d="M650.93,367.81a96.44,96.44,0,0,1,16.86,6.62,20.1,20.1,0,0,1-18.87-1" transform="translate(-320.72 -277.88)"/><path class="cls-2" d="M667,366.77a50.61,50.61,0,0,1,22.87,6.14c2.47,1.35,5,3.14,5.76,5.86,4.91-4.11,15.38-6.77,21.41-3.46,5.09,2.81,3.83,9.76,10.42,11.21,6.21,1.37,9.58,1.38,14.27,5.9l18.37,17.69c2.69,2.59,5.47,5.24,8.94,6.64s7.82,1.25,10.51-1.34" transform="translate(-320.72 -277.88)"/><path class="cls-2" d="M720.11,376.12a33.37,33.37,0,0,1,18.69,13.57" transform="translate(-320.72 -277.88)"/></g></svg>