<svg id="Layer_1" data-name="Layer 1" xmlns="http://www.w3.org/2000/svg" viewBox="0 0 679.05 240.26"><defs><style>.cls-1{fill:#f4bb3b;stroke:#8de3f7;stroke-miterlimit:10;stroke-width:6px;}</style></defs><title>carrotBent2</title><path class="cls-1" d="M208.39,347.93c-1.37-5-2.63-10.63.78-17.27,5.38-10.46,18.85-17.1,27.61-26.1,3.45-3.55,6.1-7.43,9.11-11.15a95.87,95.87,0,0,1,35.19-26.68,26.37,26.37,0,0,0,5.94-3.14c2.33-1.86,3.46-4.22,4.94-6.4,6-8.92,20.75-15.48,29.58-13.32a23,23,0,0,1,14.23-7.61c7.48-7.5,23.91-15,33.9-14.55a16.58,16.58,0,0,0,5.83-.33c3.39-1,5.36-3.83,7.87-5.94,8.64-7.28,22.44-6.17,34.18-8A134.2,134.2,0,0,0,431.86,204q19.75-5.46,39.81-9.4c16.86-3.36,35.39-5.71,49.68-.85,32.63-5,68.14-6.78,99.51,1.36,31.52,8,58.3,27.53,62.24,48.78,1.87,9.49-.54,18.68-4.78,27-11,20.75-36.33,37.87-64.69,37.08-21.09-.59-40.36-10.77-62-13.73-17.64-2.43-36.58.18-53.29-4-7.16,1.24-14.42,1.1-21.64,1.14A433.89,433.89,0,0,0,422.86,295c-9.68,1.22-21.28,2.43-25.88-3.28-3.17,6.22-12.79,9.66-20.73,10.62s-15.86.41-23.83,3.44c-4.08,1.55-7.9,4-12,5.51a59.94,59.94,0,0,1-10.35,2.56C290.87,321,248.19,334.26,208.39,347.93Z" transform="translate(-203.98 -186.47)"/><path class="cls-1" d="M683.07,258.46c14.75-2.82,33.72,5.19,46.54.63,4.06-1.45,6.89-4,9.91-6.41a77.4,77.4,0,0,1,22-11.89,5.23,5.23,0,0,1,3.13-.33,4.42,4.42,0,0,1,3.15,4.44,17.51,17.51,0,0,1-4.83,12c10.89-.24,20.46-3.59,25.89-9.55,2.67-3,4.33-6.5,7.41-9.19s8.16-4.42,14.19-2.81q-2.13,4.6-4.25,9.23c6,0,11.27-1.31,15.12-3.79,4.42,6.39,2.45,13-4,14.82,6.71,3.51,14.89,2.51,15.95-2.19,5.63-2,23,1.75,29.65,7a38.51,38.51,0,0,1,12.87,18c1.1,3.33,1.65,6.63.94,9.36-1.68,6.33-9.81,8.44-18.43,7.64s-17.89-4-27-6.86c4.48,3.54,9.13,7.47,11.09,11.87,2.48,5.61-3,9.54-5.22,13.23,16,1.68,33.19,19.77,31.45,32.47q-3.83-1-7.65-2c-.09,4.53,5.14,9.41,8.53,14.16s3.74,11.91-1.49,10.85c6.42,3.27,11.1,11.19,9.29,16.11s-9.89,5.28-15.24.66q7.75,12.45,14.64,25.31-5.74-2-11.49-3.75c5.29,4.6,4.38,12.32-.18,14.77s-11,1.33-17-.17c-9-2.32-19.43-6.73-23-15-3.29-7.58-.08-17.13-7.53-22.43-2.76,1.88-1.81,6.16-1.72,9.68s-2.38,7.47-6.08,5.9q-.28,5.31-.67,10.57c-4.69,2.28-10.4-4.18-13.24-9.32s-8.77-11.52-13.45-9.07a20.72,20.72,0,0,1,1.93,12.6,27.7,27.7,0,0,1-11.36-.5q-1.12-2.31-2.28-4.59a8.89,8.89,0,0,0-6,8.46,88.38,88.38,0,0,1-10.19-16.73q-3.21,1.73-6.37,3.49c-.91-7.39-9.64-12.08-15.5-17.68-11.58-11.06-12.23-27.37-12.27-41.87-2,.55-4,1.11-5.93,1.68-11.16-11.95,6.35-29.77-7-41.11-2.63-2.15-6-3.56-9.37-4.87q-13.31-5.25-27-9.66" transform="translate(-203.98 -186.47)"/><path class="cls-1" d="M723,268.47a14.73,14.73,0,0,1,5.08,1.51c3.91,2.31,3.78,7.06,7.87,9.06,2.61,1.28,5.53.73,8.24.54s6.46.55,7.57,2.72c-.37,2.26-3.5,3.29-6.59,3s-6.19-1.54-9.18-2.75q-9.87-4-19.9-7.52c-5.66-2-12.6-3.76-16.82-6.77C704.56,264.44,715.45,267.21,723,268.47Z" transform="translate(-203.98 -186.47)"/><path class="cls-1" d="M679.28,273.54a122.36,122.36,0,0,1,21,12.19,40.13,40.13,0,0,1-25-7.29" transform="translate(-203.98 -186.47)"/><path class="cls-1" d="M701.25,278a77.83,77.83,0,0,1,28.56,15.5c2.79,2.42,5.46,5.34,5.46,8.24,7.73-1.56,22.39,1.56,28.66,8.12,5.28,5.52.76,11.05,8.2,16.27,7,5,11,7.16,14.44,14.17q6.63,13.73,12.1,27.59c1.61,4.07,3.21,8.25,6.16,11.88s7.63,6.7,12,6.63" transform="translate(-203.98 -186.47)"/><path class="cls-1" d="M767.54,312.44c8.7,6.35,14.83,15.06,16.9,23.63" transform="translate(-203.98 -186.47)"/></svg>